<svg width="163" height="52" viewBox="0 0 163 52" fill="none" xmlns="http://www.w3.org/2000/svg">
<path d="M10.8771 28.4782C10.1571 28.4782 9.5657 28.2602 9.10285 27.824C8.63999 27.3622 8.40856 26.7978 8.40856 26.1307V3.80992H13.4228V26.1307C13.4228 26.7978 13.1786 27.3622 12.69 27.824C12.2271 28.2602 11.6228 28.4782 10.8771 28.4782ZM2.35285 5.96503C1.68428 5.96503 1.11857 5.75979 0.655713 5.34929C0.218571 4.93879 0 4.40001 0 3.73296C0 3.0659 0.218571 2.53995 0.655713 2.15511C1.11857 1.74461 1.68428 1.53936 2.35285 1.53936H19.4785C20.1471 1.53936 20.7 1.74461 21.1371 2.15511C21.6 2.56561 21.8314 3.10438 21.8314 3.77144C21.8314 4.4385 21.6 4.97728 21.1371 5.38777C20.7 5.77261 20.1471 5.96503 19.4785 5.96503H2.35285Z" fill="#FDFDFD"/>
<path d="M30.5817 28.8631C28.396 28.8631 26.4931 28.4141 24.8731 27.5161C23.2788 26.5925 22.0445 25.3482 21.1703 23.7832C20.3217 22.2182 19.8974 20.4479 19.8974 18.4724C19.8974 16.1633 20.3603 14.2006 21.286 12.5843C22.2374 10.9423 23.4717 9.68516 24.9888 8.81286C26.506 7.94055 28.1131 7.5044 29.8103 7.5044C31.1217 7.5044 32.356 7.77379 33.5131 8.31256C34.696 8.85134 35.7374 9.59537 36.6374 10.5446C37.5374 11.4683 38.2445 12.5458 38.7588 13.7773C39.2988 15.0088 39.5688 16.3173 39.5688 17.7027C39.5431 18.3184 39.2988 18.8187 38.8359 19.2036C38.3731 19.5884 37.8331 19.7808 37.216 19.7808H22.4817L21.3245 15.9324H35.4802L34.6317 16.7021V15.663C34.5802 14.919 34.3102 14.2519 33.8217 13.6619C33.3588 13.0718 32.7674 12.61 32.0474 12.2764C31.3531 11.9172 30.6074 11.7376 29.8103 11.7376C29.0388 11.7376 28.3188 11.8403 27.6503 12.0455C26.9817 12.2508 26.4031 12.5971 25.9145 13.0846C25.426 13.5721 25.0403 14.2263 24.7574 15.0473C24.4745 15.8683 24.3331 16.9073 24.3331 18.1645C24.3331 19.5499 24.616 20.7301 25.1817 21.705C25.7731 22.6543 26.5188 23.3855 27.4188 23.8986C28.3445 24.3861 29.3217 24.6298 30.3503 24.6298C31.3017 24.6298 32.0602 24.5529 32.626 24.3989C33.1917 24.245 33.6417 24.0654 33.976 23.8601C34.336 23.6292 34.6574 23.4368 34.9402 23.2829C35.4031 23.052 35.8402 22.9365 36.2517 22.9365C36.8174 22.9365 37.2802 23.1289 37.6402 23.5138C38.026 23.8986 38.2188 24.3476 38.2188 24.8607C38.2188 25.5534 37.8588 26.182 37.1388 26.7464C36.4702 27.3109 35.5317 27.8112 34.3231 28.2473C33.1145 28.6578 31.8674 28.8631 30.5817 28.8631Z" fill="#FDFDFD"/>
<path d="M52.7928 7.5044C54.2585 7.5044 55.5313 7.65834 56.6113 7.96621C57.717 8.27408 58.5656 8.71023 59.157 9.27467C59.7742 9.81345 60.0828 10.4677 60.0828 11.2374C60.0828 11.7505 59.9285 12.2379 59.6199 12.6998C59.3113 13.1359 58.8613 13.354 58.2699 13.354C57.8585 13.354 57.5113 13.3027 57.2285 13.2C56.9713 13.0718 56.7399 12.9178 56.5342 12.7382C56.3285 12.5586 56.0842 12.3919 55.8013 12.2379C55.5442 12.084 55.1456 11.9686 54.6056 11.8916C54.0913 11.789 53.7056 11.7376 53.4485 11.7376C52.1371 11.7376 51.0185 12.0199 50.0928 12.5843C49.1928 13.1487 48.4985 13.9184 48.0099 14.8933C47.5213 15.8426 47.2771 16.9458 47.2771 18.203C47.2771 19.4345 47.5213 20.5377 48.0099 21.5126C48.5242 22.4619 49.2185 23.2187 50.0928 23.7832C50.9928 24.3476 52.0213 24.6298 53.1785 24.6298C53.8213 24.6298 54.3742 24.5913 54.837 24.5144C55.2999 24.4374 55.6856 24.322 55.9942 24.168C56.3542 23.9628 56.6756 23.7447 56.9585 23.5138C57.2413 23.2829 57.6656 23.1674 58.2313 23.1674C58.8999 23.1674 59.4142 23.3855 59.7742 23.8217C60.1342 24.2322 60.3142 24.7453 60.3142 25.361C60.3142 26.0024 59.9542 26.5925 59.2342 27.1313C58.5142 27.6444 57.5628 28.0677 56.3799 28.4013C55.2228 28.7091 53.9628 28.8631 52.5999 28.8631C50.5685 28.8631 48.8071 28.4013 47.3156 27.4776C45.8242 26.5284 44.6671 25.2456 43.8442 23.6292C43.0471 22.0129 42.6485 20.2042 42.6485 18.203C42.6485 16.0992 43.0728 14.2519 43.9213 12.6613C44.7956 11.0449 45.9913 9.78779 47.5085 8.88983C49.0513 7.96621 50.8128 7.5044 52.7928 7.5044Z" fill="#FDFDFD"/>
<path d="M74.4904 7.5044C76.3418 7.5044 77.7432 7.90207 78.6946 8.69741C79.6718 9.49274 80.3404 10.5575 80.7004 11.8916C81.0604 13.2 81.2404 14.6624 81.2404 16.2788V26.1307C81.2404 26.7978 81.0218 27.3622 80.5846 27.824C80.1475 28.2602 79.5946 28.4782 78.9261 28.4782C78.2575 28.4782 77.7047 28.2602 77.2675 27.824C76.8304 27.3622 76.6118 26.7978 76.6118 26.1307V16.2788C76.6118 15.4321 76.5089 14.6753 76.3032 14.0082C76.0975 13.3155 75.7247 12.7639 75.1847 12.3534C74.6447 11.9429 73.8732 11.7376 72.8704 11.7376C71.8932 11.7376 71.0575 11.9429 70.3632 12.3534C69.6689 12.7639 69.1418 13.3155 68.7818 14.0082C68.4475 14.6753 68.2804 15.4321 68.2804 16.2788V26.1307C68.2804 26.7978 68.0618 27.3622 67.6247 27.824C67.1875 28.2602 66.6347 28.4782 65.9661 28.4782C65.2975 28.4782 64.7447 28.2602 64.3075 27.824C63.8704 27.3622 63.6518 26.7978 63.6518 26.1307V2.34753C63.6518 1.68047 63.8704 1.12887 64.3075 0.692712C64.7447 0.230904 65.2975 0 65.9661 0C66.6347 0 67.1875 0.230904 67.6247 0.692712C68.0618 1.12887 68.2804 1.68047 68.2804 2.34753V11.8916L67.7018 11.7761C67.9332 11.34 68.2547 10.8782 68.6661 10.3907C69.0775 9.87759 69.5789 9.40295 70.1704 8.96679C70.7618 8.53064 71.4175 8.18428 72.1375 7.92772C72.8575 7.64551 73.6418 7.5044 74.4904 7.5044Z" fill="#FDFDFD"/>
<path d="M89.4151 28.4782C88.6951 28.4782 88.0522 28.2602 87.4865 27.824C86.9208 27.3622 86.6379 26.7978 86.6379 26.1307V3.88689C86.6379 3.21984 86.8565 2.66823 87.2937 2.23208C87.7565 1.77027 88.3222 1.53936 88.9908 1.53936H100.099C101.436 1.53936 102.684 1.89855 103.841 2.61692C105.024 3.30963 105.975 4.28456 106.695 5.54171C107.415 6.7732 107.775 8.19711 107.775 9.81345C107.775 10.7884 107.569 11.7376 107.158 12.6613C106.772 13.5849 106.232 14.4187 105.538 15.1627C104.869 15.9068 104.111 16.484 103.262 16.8945L103.301 16.0094C104.021 16.3942 104.612 16.856 105.075 17.3948C105.564 17.9079 105.936 18.4724 106.194 19.0881C106.476 19.6782 106.644 20.3196 106.695 21.0123C106.798 21.6537 106.862 22.2182 106.888 22.7056C106.939 23.1931 107.016 23.6036 107.119 23.9371C107.248 24.2706 107.479 24.5272 107.814 24.7068C108.379 25.0403 108.726 25.5278 108.855 26.1692C109.009 26.7849 108.868 27.3365 108.431 27.824C108.148 28.1575 107.788 28.3756 107.351 28.4782C106.914 28.5552 106.476 28.5552 106.039 28.4782C105.602 28.3756 105.242 28.2473 104.959 28.0934C104.522 27.8368 104.085 27.4648 103.648 26.9774C103.211 26.4642 102.851 25.7843 102.568 24.9377C102.311 24.091 102.182 23.0007 102.182 21.6665C102.182 21.2304 102.105 20.8327 101.951 20.4735C101.796 20.0887 101.578 19.768 101.295 19.5114C101.012 19.2292 100.652 19.024 100.215 18.8957C99.7779 18.7418 99.2636 18.6648 98.6722 18.6648H90.8808L91.4594 17.7797V26.1307C91.4594 26.7978 91.2794 27.3622 90.9194 27.824C90.5594 28.2602 90.0579 28.4782 89.4151 28.4782ZM90.9194 14.7009H99.9065C100.369 14.7009 100.819 14.4957 101.256 14.0852C101.694 13.649 102.054 13.0718 102.336 12.3534C102.619 11.6094 102.761 10.8012 102.761 9.9289C102.761 8.80003 102.452 7.86358 101.835 7.11956C101.244 6.34988 100.601 5.96503 99.9065 5.96503H90.9965L91.4594 4.73354V15.6245L90.9194 14.7009Z" fill="#FDFDFD"/>
<path d="M132.563 18.203C132.563 20.3068 132.087 22.1668 131.135 23.7832C130.21 25.3738 128.95 26.6182 127.355 27.5161C125.787 28.4141 124.025 28.8631 122.071 28.8631C120.117 28.8631 118.343 28.4141 116.748 27.5161C115.18 26.6182 113.92 25.3738 112.968 23.7832C112.043 22.1668 111.58 20.3068 111.58 18.203C111.58 16.0992 112.043 14.2519 112.968 12.6613C113.92 11.0449 115.18 9.78779 116.748 8.88983C118.343 7.96621 120.117 7.5044 122.071 7.5044C124.025 7.5044 125.787 7.96621 127.355 8.88983C128.95 9.78779 130.21 11.0449 131.135 12.6613C132.087 14.2519 132.563 16.0992 132.563 18.203ZM127.934 18.203C127.934 16.8945 127.664 15.7657 127.124 14.8164C126.61 13.8414 125.903 13.0846 125.003 12.5458C124.128 12.007 123.151 11.7376 122.071 11.7376C120.991 11.7376 120.001 12.007 119.101 12.5458C118.227 13.0846 117.52 13.8414 116.98 14.8164C116.465 15.7657 116.208 16.8945 116.208 18.203C116.208 19.4858 116.465 20.6147 116.98 21.5896C117.52 22.5389 118.227 23.2829 119.101 23.8217C120.001 24.3604 120.991 24.6298 122.071 24.6298C123.151 24.6298 124.128 24.3604 125.003 23.8217C125.903 23.2829 126.61 22.5389 127.124 21.5896C127.664 20.6147 127.934 19.4858 127.934 18.203Z" fill="#FDFDFD"/>
<path d="M160.373 7.88924C160.965 7.88924 161.479 8.12014 161.916 8.58195C162.353 9.01811 162.572 9.58254 162.572 10.2753C162.572 10.4548 162.559 10.6216 162.533 10.7755C162.508 10.9038 162.469 11.0321 162.418 11.1604L156.516 27.0158C156.336 27.529 156.015 27.9266 155.552 28.2088C155.089 28.4654 154.601 28.5552 154.086 28.4782C153.212 28.4269 152.556 27.9395 152.119 27.0158L148.301 16.0479L149.303 16.0864L145.716 27.0158C145.279 27.9395 144.623 28.4269 143.749 28.4782C143.261 28.5552 142.772 28.4654 142.283 28.2088C141.821 27.9266 141.499 27.529 141.319 27.0158L135.418 11.1604C135.315 10.8782 135.263 10.5831 135.263 10.2753C135.263 9.65951 135.469 9.1079 135.881 8.62044C136.292 8.13297 136.858 7.88924 137.578 7.88924C138.066 7.88924 138.503 8.00469 138.889 8.2356C139.275 8.4665 139.545 8.83851 139.699 9.35164L144.366 21.9744L143.402 21.8975L146.912 12.3919C147.323 11.4426 148.031 10.968 149.033 10.968C149.599 10.968 150.023 11.0962 150.306 11.3528C150.615 11.5837 150.859 11.9301 151.039 12.3919L154.549 21.8975L153.392 22.0514L158.136 9.35164C158.445 8.37671 159.191 7.88924 160.373 7.88924Z" fill="#FDFDFD"/>
<path d="M110.692 36.1229C111.355 35.2494 112.606 35.0746 113.485 35.7326C114.365 36.3905 114.541 37.6323 113.878 38.5058C110.442 43.0356 100.267 52.0001 86.5285 52.0001C72.8223 52.0001 61.8908 43.0689 58.0846 38.5916C57.3742 37.7559 57.4806 36.5066 58.3221 35.8012C59.1637 35.0959 60.4218 35.2015 61.1322 36.0371C64.5268 40.0302 74.4446 48.0399 86.5285 48.0399C98.5802 48.0399 107.703 40.0635 110.692 36.1229Z" fill="#FDFDFD"/>
</svg>
