<svg width="41" height="41" viewBox="0 0 41 41" fill="none" xmlns="http://www.w3.org/2000/svg">
<path d="M20.584 10.1719C26.3296 10.1721 30.9871 14.8306 30.9873 20.5762C30.9873 26.3221 26.3299 30.9795 20.584 30.9795C14.8381 30.9794 10.1797 26.3221 10.1797 20.5762C10.1799 15.01 14.5518 10.4642 20.0488 10.1855L20.584 10.1719ZM20.5811 13.8242C16.8512 13.8243 13.8283 16.8473 13.8281 20.5771C13.8281 24.3067 16.8511 27.3309 20.5811 27.3311C24.3106 27.3311 27.335 24.3067 27.335 20.5771C27.3348 16.8472 24.3106 13.8242 20.5811 13.8242Z" fill="#FDFDFD"/>
<path d="M20.2588 0C25.7596 9.01986e-06 26.448 0.024735 28.6084 0.123047C30.7651 0.221809 32.2387 0.56251 33.5303 1.06348C34.8641 1.58054 35.9912 2.27341 37.1182 3.40039C38.2451 4.52649 38.9379 5.65677 39.457 6.98926C39.955 8.27737 40.2962 9.74965 40.3975 11.9062C40.4945 14.0674 40.5205 14.7584 40.5205 20.2607C40.5205 25.7629 40.4945 26.4522 40.3975 28.6133C40.2961 30.769 39.955 32.2417 39.457 33.5303C38.9379 34.8624 38.2451 35.993 37.1182 37.1191C35.9925 38.246 34.8633 38.9396 33.5312 39.457C32.2423 39.958 30.768 40.2997 28.6113 40.3984C26.4506 40.4968 25.7619 40.5205 20.2598 40.5205C14.7578 40.5205 14.0674 40.4968 11.9062 40.3984C9.74988 40.2997 8.27731 39.958 6.98828 39.457C5.65666 38.9396 4.52604 38.246 3.40039 37.1191C2.27383 35.993 1.58138 34.8618 1.06348 33.5293C0.562975 32.2412 0.22125 30.7689 0.12207 28.6123C0.0241508 26.4513 7.22281e-07 25.7628 0 20.2607C0 14.7585 0.0254184 14.0672 0.12207 11.9062C0.219151 9.75021 0.561189 8.27692 1.06348 6.98828C1.58259 5.65647 2.27468 4.52631 3.40137 3.40039C4.52743 2.2739 5.6578 1.58095 6.99023 1.06348C8.27845 0.562455 9.75132 0.221816 11.9082 0.123047C14.0687 0.0247255 14.7595 9.43417e-06 20.2588 0ZM18.7617 3.96289C14.9859 3.96711 14.2614 3.99274 12.3926 4.07715C10.4172 4.1679 9.34406 4.49681 8.62988 4.77539C7.68454 5.14343 7.00885 5.58295 6.2998 6.29199C5.59105 7.00085 5.15129 7.67599 4.78418 8.62109C4.50688 9.33524 4.17628 10.4076 4.08594 12.3828C3.98886 14.5186 3.96973 15.1571 3.96973 20.5674C3.96973 25.9775 3.98887 26.6193 4.08594 28.7549C4.17583 30.73 4.50689 31.8023 4.78418 32.5156C5.15221 33.4614 5.5908 34.1357 6.2998 34.8447C7.00889 35.5538 7.68447 35.9931 8.62988 36.3604C9.34448 36.6377 10.4172 36.9674 12.3926 37.0586C14.5281 37.1557 15.1695 37.1768 20.5791 37.1768C25.9883 37.1768 26.6301 37.1557 28.7656 37.0586C30.7408 36.9683 31.814 36.6389 32.5273 36.3604C33.4732 35.9931 34.1464 35.5538 34.8555 34.8447C35.5646 34.136 36.0049 33.4631 36.3721 32.5176C36.6494 31.8042 36.979 30.7321 37.0693 28.7568C37.1664 26.6211 37.1875 25.9792 37.1875 20.5723C37.1875 15.1659 37.1664 14.524 37.0693 12.3887C36.9794 10.4133 36.6494 9.34029 36.3721 8.62695C36.004 7.68165 35.5645 7.00688 34.8555 6.29785C34.1468 5.58875 33.4728 5.14944 32.5273 4.78223C31.8132 4.50493 30.7408 4.1743 28.7656 4.08398C26.6297 3.98692 25.9883 3.96777 20.5791 3.96777C19.903 3.96777 19.3011 3.96693 18.7617 3.96777V3.96289Z" fill="#FDFDFD"/>
<path d="M31.3922 7.33288C30.0499 7.33288 28.9609 8.4206 28.9609 9.76327C28.9609 11.1055 30.0499 12.1945 31.3922 12.1945C32.7344 12.1945 33.8234 11.1055 33.8234 9.76327C33.8234 8.42102 32.7344 7.33203 31.3922 7.33203V7.33288Z" fill="#FDFDFD"/>
</svg>
