<svg width="64" height="64" viewBox="0 0 64 64" fill="none" xmlns="http://www.w3.org/2000/svg">
<rect width="64" height="64" rx="8" fill="#202372" fill-opacity="0.3"/>
<path d="M32.584 22.1719C38.3296 22.1721 42.9871 26.8306 42.9873 32.5762C42.9873 38.3221 38.3299 42.9795 32.584 42.9795C26.8381 42.9794 22.1797 38.3221 22.1797 32.5762C22.1799 27.01 26.5518 22.4642 32.0488 22.1855L32.584 22.1719ZM32.5811 25.8242C28.8512 25.8243 25.8283 28.8473 25.8281 32.5771C25.8281 36.3067 28.8511 39.3309 32.5811 39.3311C36.3106 39.3311 39.335 36.3067 39.335 32.5771C39.3348 28.8472 36.3106 25.8242 32.5811 25.8242Z" fill="#FDFDFD"/>
<path d="M32.2588 12C37.7596 12 38.448 12.0247 40.6084 12.123C42.7651 12.2218 44.2387 12.5625 45.5303 13.0635C46.8641 13.5805 47.9912 14.2734 49.1182 15.4004C50.2451 16.5265 50.9379 17.6568 51.457 18.9893C51.955 20.2774 52.2962 21.7497 52.3975 23.9062C52.4945 26.0674 52.5205 26.7584 52.5205 32.2607C52.5205 37.7629 52.4945 38.4522 52.3975 40.6133C52.2961 42.769 51.955 44.2417 51.457 45.5303C50.9379 46.8624 50.2451 47.993 49.1182 49.1191C47.9925 50.246 46.8633 50.9396 45.5312 51.457C44.2423 51.958 42.768 52.2997 40.6113 52.3984C38.4506 52.4968 37.7619 52.5205 32.2598 52.5205C26.7578 52.5205 26.0674 52.4968 23.9062 52.3984C21.7499 52.2997 20.2773 51.958 18.9883 51.457C17.6567 50.9396 16.526 50.246 15.4004 49.1191C14.2738 47.993 13.5814 46.8618 13.0635 45.5293C12.563 44.2412 12.2212 42.7689 12.1221 40.6123C12.0242 38.4513 12 37.7628 12 32.2607C12 26.7585 12.0254 26.0672 12.1221 23.9062C12.2192 21.7502 12.5612 20.2769 13.0635 18.9883C13.5826 17.6565 14.2747 16.5263 15.4014 15.4004C16.5274 14.2739 17.6578 13.5809 18.9902 13.0635C20.2785 12.5625 21.7513 12.2218 23.9082 12.123C26.0687 12.0247 26.7595 12 32.2588 12ZM30.7617 15.9629C26.9859 15.9671 26.2614 15.9927 24.3926 16.0771C22.4172 16.1679 21.3441 16.4968 20.6299 16.7754C19.6845 17.1434 19.0089 17.5829 18.2998 18.292C17.591 19.0009 17.1513 19.676 16.7842 20.6211C16.5069 21.3352 16.1763 22.4076 16.0859 24.3828C15.9889 26.5186 15.9697 27.1571 15.9697 32.5674C15.9697 37.9775 15.9889 38.6193 16.0859 40.7549C16.1758 42.73 16.5069 43.8023 16.7842 44.5156C17.1522 45.4614 17.5908 46.1357 18.2998 46.8447C19.0089 47.5538 19.6845 47.9931 20.6299 48.3604C21.3445 48.6377 22.4172 48.9674 24.3926 49.0586C26.5281 49.1557 27.1695 49.1768 32.5791 49.1768C37.9883 49.1768 38.6301 49.1557 40.7656 49.0586C42.7408 48.9683 43.814 48.6389 44.5273 48.3604C45.4732 47.9931 46.1464 47.5538 46.8555 46.8447C47.5646 46.136 48.0049 45.4631 48.3721 44.5176C48.6494 43.8042 48.979 42.7321 49.0693 40.7568C49.1664 38.6211 49.1875 37.9792 49.1875 32.5723C49.1875 27.1659 49.1664 26.524 49.0693 24.3887C48.9794 22.4133 48.6494 21.3403 48.3721 20.627C48.004 19.6817 47.5645 19.0069 46.8555 18.2979C46.1468 17.5887 45.4728 17.1494 44.5273 16.7822C43.8132 16.5049 42.7408 16.1743 40.7656 16.084C38.6297 15.9869 37.9883 15.9678 32.5791 15.9678C31.903 15.9678 31.3011 15.9669 30.7617 15.9678V15.9629Z" fill="#FDFDFD"/>
<path d="M43.3922 19.3329C42.0499 19.3329 40.9609 20.4206 40.9609 21.7633C40.9609 23.1055 42.0499 24.1945 43.3922 24.1945C44.7344 24.1945 45.8234 23.1055 45.8234 21.7633C45.8234 20.421 44.7344 19.332 43.3922 19.332V19.3329Z" fill="#FDFDFD"/>
</svg>
