<svg width="34" height="33" viewBox="0 0 34 33" fill="none" xmlns="http://www.w3.org/2000/svg">
<path d="M7.68159 10.5039H0.429688V32.2929H7.68159V10.5039Z" fill="#FDFDFD"/>
<path d="M8.15835 3.7636C8.11128 1.6272 6.58354 0 4.10271 0C1.62188 0 0 1.6272 0 3.7636C0 5.85574 1.57394 7.5298 4.00857 7.5298H4.05492C6.58354 7.5298 8.15835 5.85574 8.15835 3.7636Z" fill="#FDFDFD"/>
<path d="M33.8344 19.7997C33.8344 13.107 30.2568 9.99219 25.4847 9.99219C21.6344 9.99219 19.9106 12.107 18.9481 13.5906V10.5044H11.6953C11.7909 12.549 11.6953 32.2934 11.6953 32.2934H18.9481V20.1246C18.9481 19.4734 18.9951 18.8238 19.1869 18.3576C19.711 17.0566 20.9044 15.7097 22.9078 15.7097C25.5331 15.7097 26.5825 17.7077 26.5825 20.6357V32.2928H33.8341L33.8344 19.7997Z" fill="#FDFDFD"/>
</svg>
