<svg width="64" height="64" viewBox="0 0 64 64" fill="none" xmlns="http://www.w3.org/2000/svg">
<rect width="64" height="64" rx="8" fill="#202372" fill-opacity="0.3"/>
<path d="M22.3456 26.5039H15.0938V48.2929H22.3456V26.5039Z" fill="#FDFDFD"/>
<path d="M22.8224 19.7636C22.7753 17.6272 21.2476 16 18.7668 16C16.2859 16 14.6641 17.6272 14.6641 19.7636C14.6641 21.8557 16.238 23.5298 18.6726 23.5298H18.719C21.2476 23.5298 22.8224 21.8557 22.8224 19.7636Z" fill="#FDFDFD"/>
<path d="M48.4984 35.7997C48.4984 29.107 44.9208 25.9922 40.1488 25.9922C36.2985 25.9922 34.5746 28.107 33.6121 29.5906V26.5044H26.3594C26.455 28.549 26.3594 48.2934 26.3594 48.2934H33.6121V36.1246C33.6121 35.4734 33.6592 34.8238 33.851 34.3576C34.3751 33.0566 35.5684 31.7097 37.5719 31.7097C40.1971 31.7097 41.2465 33.7077 41.2465 36.6357V48.2928H48.4981L48.4984 35.7997Z" fill="#FDFDFD"/>
</svg>
