<svg width="64" height="64" viewBox="0 0 64 64" fill="none" xmlns="http://www.w3.org/2000/svg">
<rect width="64" height="64" rx="8" fill="#202372" fill-opacity="0.3"/>
<path d="M32.6667 17.332C32.6667 17.332 45.592 17.3318 48.8151 18.2188C50.5936 18.7068 51.9947 20.1453 52.4701 21.9714C53.3337 25.2811 53.3333 32.1862 53.3333 32.1862C53.3333 32.1862 53.3336 39.0915 52.4701 42.401C51.9947 44.2271 50.5936 45.6654 48.8151 46.1536C45.592 47.0403 32.6667 47.0404 32.6667 47.0404C32.6667 47.0404 19.7416 47.0402 16.5182 46.1536C14.7397 45.6654 13.3386 44.2271 12.8633 42.401C11.9999 39.0915 12 32.1862 12 32.1862C12 32.1862 11.9998 25.2811 12.8633 21.9714C13.3386 20.1453 14.7397 18.7068 16.5182 18.2188C19.7417 17.332 32.6667 17.332 32.6667 17.332ZM28.7969 39.2891L39.1302 32.8307L28.7969 26.3724V39.2891Z" fill="#FDFDFD"/>
</svg>
