<svg width="42" height="30" viewBox="0 0 42 30" fill="none" xmlns="http://www.w3.org/2000/svg">
<path d="M20.6667 0C20.6667 0 33.592 -0.000208934 36.8151 0.886719C38.5936 1.37475 39.9947 2.81322 40.4701 4.63932C41.3337 7.94907 41.3333 14.8542 41.3333 14.8542C41.3333 14.8542 41.3336 21.7594 40.4701 25.069C39.9947 26.8951 38.5936 28.3333 36.8151 28.8216C33.592 29.7083 20.6667 29.7083 20.6667 29.7083C20.6667 29.7083 7.74156 29.7082 4.51823 28.8216C2.73972 28.3333 1.33861 26.8951 0.863281 25.069C-6.8744e-05 21.7594 0 14.8542 0 14.8542C0 14.8542 -0.000174125 7.94905 0.863281 4.63932C1.33861 2.81322 2.73972 1.37475 4.51823 0.886719C7.74166 -6.95388e-05 20.6667 0 20.6667 0ZM16.7969 21.957L27.1302 15.4987L16.7969 9.04037V21.957Z" fill="#FDFDFD"/>
</svg>
